<?xml version="1.0" encoding="UTF-8"?>
<svg id="Layer_1" data-name="Layer 1" xmlns="http://www.w3.org/2000/svg" viewBox="0 0 96 96">
  <defs>
    <style>
      .cls-1 {
        fill: none;
        stroke: #000;
        stroke-miterlimit: 10;
        stroke-width: 4px;
      }
    </style>
  </defs>
  <path class="cls-1" d="m93.37,48c0,11.34-4.16,21.7-11.04,29.65-.04.04-.08.09-.11.13-8.31,9.56-20.56,15.59-34.22,15.59s-25.91-6.03-34.22-15.59c-.03-.04-.07-.09-.11-.13-6.88-7.95-11.04-18.31-11.04-29.65C2.63,22.94,22.94,2.63,48,2.63s45.37,20.31,45.37,45.37Z"/>
  <circle cx="48" cy="30.16" r="19.14"/>
  <path d="m82.22,77.78c-8.31,9.56-20.56,15.59-34.22,15.59s-25.91-6.03-34.22-15.59c1.2-4.98,3.76-9.42,7.26-12.92,4.96-4.96,11.82-8.03,19.39-8.03h15.14c12.92,0,23.74,8.92,26.65,20.95Z"/>
</svg>