<?xml version="1.0" encoding="UTF-8"?>
<svg id="Layer_1" data-name="Layer 1" xmlns="http://www.w3.org/2000/svg" viewBox="0 0 96 96">
  <path d="m55.14,93.36h-14.28c-2.63,0-4.89-1.97-5.25-4.58l-.85-6.2-10.09-5.82-5.79,2.36c-2.44,1-5.27.03-6.59-2.26l-7.14-12.37c-1.32-2.28-.74-5.22,1.34-6.84l4.94-3.84v-11.65l-4.94-3.84c-2.08-1.61-2.66-4.55-1.34-6.83l7.14-12.37c1.32-2.28,4.15-3.25,6.59-2.26l5.79,2.36,10.09-5.82.85-6.2c.36-2.61,2.62-4.58,5.25-4.58h14.28c2.63,0,4.89,1.97,5.25,4.58h0s.85,6.2.85,6.2l10.09,5.82,5.79-2.36c2.44-1,5.27-.03,6.59,2.26l7.14,12.37c1.32,2.28.74,5.22-1.34,6.84l-4.94,3.84v11.65l4.94,3.84c2.08,1.62,2.66,4.55,1.34,6.83l-7.14,12.37c-1.32,2.28-4.15,3.25-6.59,2.26l-5.79-2.36-10.09,5.82-.85,6.2c-.36,2.61-2.62,4.58-5.25,4.58Zm-13.67-6h13.06l.81-5.93c.22-1.61,1.2-3.06,2.6-3.87l10.68-6.17c1.43-.83,3.12-.94,4.65-.32l5.54,2.26,6.53-11.31-4.73-3.67c-1.28-.99-2.05-2.56-2.05-4.19v-12.33c0-1.65.75-3.18,2.05-4.19l4.73-3.67-6.53-11.31-5.55,2.26c-1.53.62-3.22.51-4.65-.32l-10.68-6.17c-1.43-.83-2.38-2.23-2.6-3.87l-.81-5.93h-13.06l-.81,5.93c-.22,1.63-1.17,3.04-2.6,3.87l-10.68,6.17c-1.43.82-3.12.94-4.65.32l-5.55-2.26-6.53,11.31,4.73,3.67c1.3,1.01,2.05,2.54,2.05,4.19v12.33c0,1.63-.77,3.19-2.05,4.19l-4.73,3.67,6.53,11.31,5.55-2.26c1.53-.62,3.22-.51,4.65.32l10.68,6.17c1.41.81,2.38,2.26,2.6,3.87l.81,5.93ZM54.45,8.04h0s0,0,0,0Z"/>
  <path d="m48,33.98c7.75,0,14.02,6.28,14.02,14.02s-6.28,14.02-14.02,14.02-14.02-6.28-14.02-14.02,6.28-14.02,14.02-14.02m0-6c-11.04,0-20.02,8.98-20.02,20.02s8.98,20.02,20.02,20.02,20.02-8.98,20.02-20.02-8.98-20.02-20.02-20.02h0Z"/>
</svg>